<svg width="196" height="56" viewBox="0 0 196 56" fill="none" xmlns="http://www.w3.org/2000/svg">
<g clip-path="url(#clip0_211_4215)">
<path d="M15.6532 21.5812C14.5868 20.8498 13.321 20.4719 12.0318 20.5001C11.4186 20.5024 10.8063 20.5494 10.1998 20.6407C9.62128 20.7219 9.058 20.8895 8.52837 21.138C8.0654 21.3549 7.65702 21.6746 7.33376 22.0732C7.00316 22.5092 6.83616 23.0492 6.86235 23.5976C6.8521 24.1316 7.04362 24.6496 7.39805 25.0463C7.81665 25.5022 8.30946 25.8825 8.85515 26.1707C9.51909 26.5442 10.2104 26.8658 10.9229 27.1329L13.2532 28.0681C14.0675 28.4285 14.8586 28.8032 15.6264 29.1925C16.3567 29.5768 17.0429 30.0408 17.6728 30.5763C18.2645 31.0867 18.7583 31.7024 19.1299 32.3926C19.5088 33.1565 19.693 34.0038 19.6656 34.8576C19.7017 36.0684 19.3911 37.2639 18.7709 38.301C18.1904 39.2409 17.4042 40.0342 16.4728 40.6201C15.4938 41.2287 14.4197 41.6655 13.2961 41.912C12.132 42.1749 10.9427 42.3072 9.74977 42.3067C8.43949 42.3178 7.13187 42.1855 5.84988 41.912C4.74338 41.6814 3.69521 41.2252 2.7696 40.5714C1.88838 39.9256 1.18423 39.0643 0.723232 38.0686C0.187191 36.8368 -0.0690553 35.4996 -0.0267466 34.1549H3.92136C3.83666 34.9192 3.97637 35.6918 4.32313 36.3766C4.65124 36.9672 5.13038 37.4582 5.71059 37.7983C6.33175 38.1775 7.01609 38.4394 7.73018 38.5713C8.5274 38.732 9.33858 38.8117 10.1515 38.8092C10.8131 38.8081 11.4731 38.7448 12.1229 38.62C12.749 38.507 13.3531 38.2934 13.9122 37.9875C14.4226 37.7086 14.8639 37.3168 15.2032 36.8415C15.5376 36.3353 15.7062 35.7359 15.6853 35.1279C15.7045 34.5696 15.513 34.0248 15.1496 33.6035C14.727 33.1446 14.2353 32.756 13.6925 32.4521C13.0352 32.0817 12.3511 31.7618 11.6461 31.4953C10.8819 31.1962 10.1069 30.8754 9.32121 30.5331C8.50695 30.2195 7.71411 29.879 6.94806 29.5006C6.20721 29.1426 5.51274 28.6942 4.88026 28.1654C4.28278 27.6649 3.78783 27.0516 3.42316 26.3599C3.05271 25.62 2.86872 24.7993 2.88746 23.9706C2.86793 22.9174 3.13671 21.8793 3.66422 20.9704C4.17865 20.1052 4.87772 19.3665 5.71059 18.8081C6.59676 18.2113 7.57142 17.7606 8.59801 17.4729C9.67598 17.1598 10.7923 17.0015 11.914 17.0026C13.0382 17.0033 14.1583 17.1376 15.2514 17.4027C16.3036 17.6489 17.2998 18.0946 18.187 18.7162C19.0602 19.3355 19.776 20.1542 20.2763 21.1055C20.825 22.2108 21.0885 23.438 21.0423 24.6733H17.0621C17.1211 24.078 17.0216 23.4777 16.7739 22.9341C16.5263 22.3906 16.1394 21.9236 15.6532 21.5812Z" fill="#27599A"/>
<path d="M30.9848 17.5486L30.0902 21.1596L30.1812 21.2515C31.198 19.9553 32.4762 18.8921 33.9311 18.1324C35.3905 17.3688 37.0122 16.9755 38.656 16.9864C40.036 16.9484 41.4003 17.2884 42.6041 17.9703C43.1763 18.3488 43.6629 18.8449 44.0321 19.4262C44.4014 20.0074 44.6449 20.6607 44.7469 21.3434C45.7043 20.0209 46.9508 18.9388 48.3897 18.1811C49.8267 17.3988 51.4335 16.9883 53.0663 16.9864C53.9057 16.9865 54.742 17.0881 55.5573 17.2891C56.3327 17.4778 57.0714 17.7957 57.743 18.2297C58.3815 18.6476 58.9063 19.2199 59.2697 19.8947C59.6575 20.6787 59.8418 21.5491 59.8054 22.4246C59.7971 23.2423 59.7201 24.0579 59.5751 24.8625C59.4144 25.7707 59.259 26.5653 59.1037 27.2518L56.0502 41.7823H52.1128L55.4984 26.4085C55.5895 26.0301 55.6752 25.5869 55.7555 25.0733C55.8244 24.646 55.8638 24.2143 55.8734 23.7814C55.8792 23.3353 55.786 22.8935 55.6006 22.4885C55.4152 22.0835 55.1423 21.7255 54.802 21.4407C54.0569 20.7932 53.0952 20.4568 52.1128 20.5001C51.5287 20.505 50.9489 20.5997 50.3932 20.7812C49.8158 20.9695 49.2578 21.2139 48.7272 21.511C47.6794 22.1005 46.7537 22.8878 46.0004 23.83C45.3433 24.5436 44.8463 25.3918 44.5433 26.3166C44.2228 27.2847 43.9564 28.27 43.7452 29.2682L41.0667 41.7823H37.1132L40.006 27.9546C40.2256 27.0194 40.4024 26.1437 40.5417 25.3274C40.6481 24.7923 40.7179 24.2505 40.7506 23.7057C40.7748 23.2753 40.7101 22.8446 40.5607 22.4407C40.4113 22.0369 40.1805 21.6688 39.8828 21.3596C39.1915 20.7517 38.2909 20.4429 37.3757 20.5001C36.223 20.5156 35.0952 20.8402 34.1079 21.4407C33.1064 22.0126 32.2021 22.7426 31.4294 23.603C30.6757 24.2814 30.0825 25.1219 29.6938 26.0626C29.3348 27.0463 29.0518 28.0566 28.8474 29.0844L26.1206 41.7877H22.1458L27.267 17.554L30.9848 17.5486Z" fill="#27599A"/>
<path d="M65.441 21.3705C66.0672 20.4037 66.8731 19.5685 67.8141 18.9109C68.7911 18.2368 69.8796 17.7443 71.0283 17.4567C72.2407 17.1402 73.4884 16.9822 74.7407 16.9864C75.8752 16.9809 77.008 17.0749 78.1263 17.2675C79.1148 17.4289 80.0682 17.7617 80.9441 18.2514C81.7426 18.7073 82.4135 19.3601 82.894 20.1488C83.4116 21.0696 83.664 22.1181 83.6226 23.176C83.6157 23.9237 83.5294 24.6685 83.3654 25.3977C83.194 26.1977 83.028 26.9221 82.8726 27.56L81.3191 34.1657C81.228 34.6684 81.0941 35.2469 80.9227 35.8523C80.7537 36.4318 80.6653 37.0321 80.6602 37.6362C80.6154 38.0559 80.7345 38.4767 80.9923 38.8092C81.1045 38.9179 81.2373 39.0026 81.3828 39.0584C81.5282 39.1141 81.6833 39.1397 81.8387 39.1335C82.0539 39.1285 82.2671 39.0903 82.4708 39.02L83.1083 38.8092L82.4976 41.7607C82.1069 41.9078 81.7058 42.0253 81.2976 42.1121C80.8885 42.2106 80.47 42.265 80.0495 42.2742C79.5957 42.3072 79.1402 42.2449 78.7114 42.0914C78.2827 41.9379 77.8902 41.6965 77.5585 41.3823C77.2676 41.0474 77.0573 40.6493 76.9439 40.2189C76.8305 39.7885 76.8172 39.3375 76.9049 38.9011L76.8085 38.8092C75.9849 39.916 74.9028 40.7999 73.6586 41.3823C72.0812 42.0389 70.3816 42.3432 68.6766 42.2742C67.7031 42.2837 66.7325 42.1656 65.7892 41.9229C64.9354 41.7121 64.1392 41.3113 63.4589 40.7498C62.7794 40.1794 62.2403 39.4578 61.8839 38.6416C61.4669 37.6419 61.2678 36.5635 61.3 35.4793C61.3 33.7008 61.6803 32.3062 62.4517 31.3061C63.2191 30.3057 64.2306 29.5234 65.3874 29.0357C66.6474 28.4977 67.9767 28.1428 69.3355 27.9816C70.764 27.7942 72.1586 27.6374 73.5193 27.5113C74.5907 27.4194 75.5014 27.3167 76.2674 27.2086C76.9252 27.1284 77.5666 26.946 78.1692 26.668C78.6473 26.4416 79.0373 26.0613 79.2781 25.5869C79.5358 24.9799 79.6548 24.3222 79.6263 23.6625C79.6517 23.0933 79.4876 22.5319 79.1602 22.0678C78.8448 21.6623 78.4417 21.335 77.9817 21.111C77.4846 20.8659 76.9536 20.6983 76.4067 20.6137C75.1123 20.3978 73.7891 20.4308 72.5068 20.711C71.8027 20.8542 71.1272 21.1155 70.5087 21.484C69.9236 21.8323 69.4121 22.2933 69.0033 22.8408C68.5687 23.436 68.2871 24.1306 68.1837 24.8625H64.1928C64.3443 23.6188 64.7709 22.4254 65.441 21.3705ZM66.5766 37.9821C67.4851 38.554 68.5381 38.8487 69.6087 38.8308C72.7693 38.8308 75.0407 37.7677 76.4228 35.6415C77.0677 34.7623 77.5239 33.7571 77.762 32.69C77.9977 31.6088 78.2567 30.5151 78.5388 29.4087H78.4424C77.7976 29.8493 77.067 30.146 76.2996 30.279C75.4371 30.4466 74.5211 30.5817 73.5514 30.6736C72.5818 30.7655 71.5961 30.8845 70.6104 31.025C69.6941 31.1443 68.7949 31.373 67.932 31.7061C67.205 31.9924 66.5566 32.4503 66.0409 33.0413C65.5 33.7241 65.2171 34.5786 65.2427 35.4523C65.2163 35.9565 65.3265 36.4584 65.5615 36.9041C65.7966 37.3498 66.1475 37.7225 66.5766 37.9821Z" fill="#27599A"/>
<path d="M94.1812 17.5486L93.008 22.7489H93.0991C94.0032 21.139 95.2291 19.7362 96.699 18.6298C98.2205 17.5212 100.062 16.9511 101.938 17.008C102.173 17.0091 102.407 16.9928 102.64 16.9594C102.877 16.9308 103.116 16.9473 103.347 17.008L102.41 21.2731C102.207 21.234 102 21.2176 101.794 21.2245H101.231C100.733 21.2245 100.326 21.2245 100.01 21.2515C99.6127 21.2827 99.2197 21.3534 98.8365 21.4623C97.7663 21.7301 96.7653 22.2259 95.9008 22.9165C95.0286 23.604 94.2739 24.4313 93.667 25.3652C93.1047 26.2064 92.6763 27.1312 92.3973 28.1059C92.0831 29.1546 91.8313 30.1313 91.642 31.0358L89.3439 41.7823H85.3958L90.4206 17.5486H94.1812Z" fill="#27599A"/>
<path d="M117.436 17.5486L116.681 21.0407H111.859L108.854 35.2955C108.822 35.573 108.79 35.8379 108.758 36.0901C108.725 36.3537 108.708 36.6191 108.709 36.8848C108.682 37.1522 108.736 37.4217 108.865 37.6568C108.995 37.8918 109.193 38.0809 109.433 38.1983C109.955 38.4402 110.524 38.5603 111.099 38.5497C111.493 38.5492 111.886 38.5094 112.272 38.4308C112.654 38.3527 113.032 38.2516 113.402 38.1281L112.695 41.7823C112.229 41.8472 111.758 41.9012 111.286 41.9445C110.818 41.9922 110.348 42.0156 109.877 42.0148C109.169 42.0183 108.461 41.964 107.761 41.8526C107.156 41.7633 106.574 41.5558 106.047 41.2417C105.562 40.948 105.157 40.5375 104.868 40.0471C104.551 39.4596 104.398 38.7965 104.424 38.1281C104.422 37.797 104.445 37.4663 104.493 37.1388C104.542 36.8307 104.595 36.4847 104.659 36.1117L107.825 21.0407H103.754L104.509 17.527H108.597L110.102 10.359H114.093L112.593 17.527L117.436 17.5486Z" fill="#27599A"/>
<path d="M130.207 26.8788L129.457 30.625H115.823L116.579 26.8788H130.207Z" fill="#27599A"/>
<path d="M141.039 17.5486L140.15 21.1596L140.241 21.2515C141.258 19.9554 142.536 18.8922 143.991 18.1324C145.45 17.3682 147.072 16.9749 148.716 16.9864C150.094 16.9475 151.457 17.2875 152.658 17.9703C153.231 18.3483 153.718 18.8443 154.087 19.4256C154.457 20.0069 154.7 20.6605 154.801 21.3434C155.759 20.0209 157.005 18.9388 158.444 18.1811C159.881 17.3988 161.488 16.9883 163.121 16.9864C163.96 16.9865 164.796 17.0881 165.612 17.2892C166.396 17.4749 167.144 17.7929 167.824 18.2297C168.463 18.6476 168.987 19.22 169.351 19.8947C169.748 20.6762 169.941 21.5468 169.913 22.4246C169.905 23.2423 169.828 24.0579 169.683 24.8625C169.522 25.7707 169.367 26.5653 169.211 27.2518L166.158 41.7823H162.162L165.547 26.4086C165.638 26.0302 165.724 25.5869 165.804 25.0733C165.873 24.646 165.913 24.2143 165.922 23.7814C165.928 23.3353 165.835 22.8935 165.65 22.4885C165.464 22.0835 165.191 21.7255 164.851 21.4407C164.108 20.7963 163.151 20.4601 162.172 20.5001C161.59 20.505 161.012 20.5998 160.458 20.7812C159.881 20.9695 159.323 21.2139 158.792 21.511C157.744 22.1005 156.819 22.8878 156.065 23.83C155.408 24.5436 154.911 25.3918 154.608 26.3167C154.288 27.2847 154.021 28.2701 153.81 29.2682L151.132 41.7823H147.135L150.05 27.9546C150.269 27.0194 150.446 26.1437 150.585 25.3274C150.692 24.7923 150.761 24.2505 150.794 23.7057C150.818 23.2753 150.754 22.8446 150.604 22.4408C150.455 22.0369 150.224 21.6688 149.926 21.3596C149.236 20.7531 148.338 20.4444 147.425 20.5001C146.272 20.5156 145.144 20.8403 144.157 21.4407C143.146 22.0102 142.232 22.7403 141.452 23.603C140.698 24.2814 140.105 25.1219 139.716 26.0626C139.366 27.0453 139.092 28.0538 138.896 29.079L136.17 41.7823H132.221L137.343 17.5486H141.039Z" fill="#50B848"/>
<path d="M176.261 32.9711C176.25 33.8372 176.433 34.6946 176.797 35.4793C177.124 36.1879 177.605 36.8126 178.206 37.3064C178.811 37.7946 179.494 38.1748 180.225 38.4308C180.981 38.6977 181.776 38.833 182.577 38.8308C184.135 38.8945 185.676 38.4758 186.991 37.6308C188.191 36.7857 189.096 35.5809 189.579 34.1873H193.538C193.255 35.4508 192.745 36.6511 192.032 37.7281C191.365 38.7202 190.52 39.5781 189.541 40.2579C188.549 40.9385 187.455 41.4532 186.3 41.7823C185.08 42.1272 183.818 42.3 182.55 42.2959C180.835 42.3524 179.128 42.0411 177.542 41.3823C176.322 40.855 175.238 40.0546 174.37 39.0416C173.606 38.125 173.046 37.0542 172.726 35.9009C172.422 34.8245 172.264 33.7118 172.254 32.5927C172.23 30.4344 172.572 28.2878 173.267 26.2464C173.872 24.4448 174.796 22.769 175.993 21.3002C177.086 19.9628 178.448 18.8756 179.99 18.1108C181.471 17.3686 183.103 16.9837 184.757 16.9864C188.329 16.9864 190.938 17.9234 192.584 19.7974C194.23 21.6714 195.054 24.3129 195.054 27.7221C195.056 28.318 195.007 28.913 194.909 29.5006C194.818 30.0412 194.737 30.5169 194.673 30.8628H176.395C176.301 31.5615 176.257 32.266 176.261 32.9711ZM190.902 24.8625C190.745 24.0702 190.424 23.3204 189.959 22.6624C189.501 22.001 188.89 21.4613 188.181 21.0894C187.308 20.6667 186.346 20.4645 185.379 20.5001C184.314 20.4854 183.255 20.6686 182.256 21.0407C181.365 21.3775 180.544 21.8778 179.834 22.5165C179.144 23.1395 178.556 23.8694 178.093 24.6787C177.622 25.5168 177.245 26.4052 176.968 27.3275H191.068C191.127 26.4895 191.071 25.6472 190.902 24.8247V24.8625Z" fill="#50B848"/>
</g>
<defs>
<clipPath id="clip0_211_4215">
<rect width="195.064" height="31.9206" fill="white" transform="translate(0 10.3807)"/>
</clipPath>
</defs>
</svg>
